<?xml version="1.0" encoding="UTF-8"?>
<svg width="36px" height="36px" viewBox="0 0 36 36" version="1.1" xmlns="http://www.w3.org/2000/svg" xmlns:xlink="http://www.w3.org/1999/xlink">
    <!-- Generator: Sketch 51.3 (57544) - http://www.bohemiancoding.com/sketch -->
    <title>001-facebook-circular-logo</title>
    <desc>Created with Sketch.</desc>
    <defs></defs>
    <g id="Page-1" stroke="none" stroke-width="1" fill="none" fill-rule="evenodd">
        <g id="2.-Product-page---Pure-oxygen" transform="translate(-995.000000, -2012.000000)" fill="#E6F2F5" fill-rule="nonzero">
            <g id="Group-6-Copy-4" transform="translate(0.000000, 1909.000000)">
                <g id="Group-12-Copy" transform="translate(995.000000, 60.000000)">
                    <g id="001-facebook-circular-logo" transform="translate(0.000000, 43.000000)">
                        <path d="M17.9633571,0.0747857143 C8.04257143,0.0747857143 0,8.11735714 0,18.0381429 C0,26.9359286 6.47614286,34.3047857 14.9674286,35.7317143 L14.9674286,21.7857857 L10.6341429,21.7857857 L10.6341429,16.7672143 L14.9674286,16.7672143 L14.9674286,13.0667143 C14.9674286,8.77307143 17.5898571,6.43328571 21.4206429,6.43328571 C23.2553571,6.43328571 24.8320714,6.57 25.2897857,6.63021429 L25.2897857,11.1182143 L22.6328571,11.1195 C20.55,11.1195 20.1484286,12.1090714 20.1484286,13.5617143 L20.1484286,16.7646429 L25.1183571,16.7646429 L24.4701429,21.7832143 L20.1484286,21.7832143 L20.1484286,35.8517143 C29.0361429,34.77 35.9265,27.2134286 35.9265,18.033 C35.9265,8.11735714 27.8839286,0.0747857143 17.9633571,0.0747857143 Z" id="Shape"></path>
                    </g>
                </g>
            </g>
        </g>
    </g>
</svg>