<?xml version="1.0" encoding="UTF-8"?>
<svg width="24px" height="20px" viewBox="0 0 24 20" version="1.1" xmlns="http://www.w3.org/2000/svg" xmlns:xlink="http://www.w3.org/1999/xlink">
    <!-- Generator: Sketch 51.3 (57544) - http://www.bohemiancoding.com/sketch -->
    <title>001-menu</title>
    <desc>Created with Sketch.</desc>
    <defs></defs>
    <g id="Page-1" stroke="none" stroke-width="1" fill="none" fill-rule="evenodd">
        <g id="1.-Homepage" transform="translate(-16.000000, -26.000000)" fill="#002F47" fill-rule="nonzero">
            <g id="Header">
                <g id="001-menu" transform="translate(16.000000, 26.000000)">
                    <path d="M0.749982466,1.82732075 L23.2500175,1.82732075 C23.6640353,1.82732075 24,1.4205283 24,0.919396226 C24,0.418188679 23.6639729,0.0114716981 23.2500175,0.0114716981 L0.749982466,0.0114716981 C0.336027057,0.0114716981 0,0.418188679 0,0.919396226 C0,1.42060377 0.336027057,1.82732075 0.749982466,1.82732075 Z" id="Shape"></path>
                    <path d="M23.2500175,9.0909434 L0.749982466,9.0909434 C0.335964714,9.0909434 0,9.49773585 0,9.99886792 C0,10.5 0.336027057,10.9067925 0.749982466,10.9067925 L23.2500175,10.9067925 C23.6640353,10.9067925 24,10.5 24,9.99886792 C24,9.49773585 23.6640353,9.0909434 23.2500175,9.0909434 Z" id="Shape"></path>
                    <path d="M23.2500175,18.1704151 L0.749982466,18.1704151 C0.335964714,18.1704151 0,18.5772075 0,19.0783396 C0,19.5795472 0.336027057,19.9862642 0.749982466,19.9862642 L23.2500175,19.9862642 C23.6640353,19.9862642 24,19.5794717 24,19.0783396 C24.0000623,18.5771321 23.6640353,18.1704151 23.2500175,18.1704151 Z" id="Shape"></path>
                </g>
            </g>
        </g>
    </g>
</svg>