<?xml version="1.0" encoding="UTF-8"?>
<svg width="78px" height="65px" viewBox="0 0 78 65" version="1.1" xmlns="http://www.w3.org/2000/svg" xmlns:xlink="http://www.w3.org/1999/xlink">
    <!-- Generator: Sketch 51.3 (57544) - http://www.bohemiancoding.com/sketch -->
    <title>001-box</title>
    <desc>Created with Sketch.</desc>
    <defs></defs>
    <g id="Page-1" stroke="none" stroke-width="1" fill="none" fill-rule="evenodd">
        <g id="2.-Product-page---Pure-oxygen" transform="translate(-1047.000000, -1518.000000)" fill="#3B9D90" fill-rule="nonzero">
            <g id="Group-19" transform="translate(217.000000, 1493.000000)">
                <g id="Group-16" transform="translate(703.000000, 0.000000)">
                    <g id="001-box" transform="translate(127.000000, 25.000000)">
                        <path d="M77.9051,17.7294 C77.8860875,17.6878 77.8643125,17.6473375 77.8401,17.6085 C77.7918375,17.5124625 77.73155,17.4227625 77.6607,17.342 C77.5554,17.2290625 77.4319,17.13465 77.2954,17.0625 C77.24795,17.035525 77.198875,17.0116375 77.1485,16.991 C77.1238,16.9819 77.1043,16.9637 77.0783,16.9559 L62.1569,12.415 L56.3069,10.465 C56.095975,10.400975 55.872375,10.39155 55.6569,10.4377 L47.1692,7.8546 C46.9223625,7.7805 46.659275,7.7805 46.4126,7.8546 L16.5126,16.9546 C16.4866,16.9624 16.4671,16.9806 16.4424,16.9897 C16.392025,17.0103375 16.34295,17.034225 16.2955,17.0612 C16.159,17.13335 16.0355,17.2277625 15.9302,17.3407 C15.85935,17.4214625 15.7990625,17.5111625 15.7508,17.6072 C15.7265875,17.6460375 15.7048125,17.6865 15.6858,17.7281 C15.6307125,17.87045 15.6017875,18.0214125 15.6,18.174 C15.6,18.174 15.6,18.1844 15.6,18.1896 L15.6,18.2 L15.6,27.3 L10.4,27.3 L10.4,29.9 L23.4,29.9 L23.4,27.3 L18.2,27.3 L18.2,20.0278 L26,22.7409 L26,33.8 C25.9995125,34.3317 26.3228875,34.8099375 26.8164,35.0077 L33.3164,37.6077 C33.9828125,37.87485 34.739575,37.5509875 35.006725,36.884575 C35.068475,36.730525 35.1001625,36.5659125 35.1,36.4 L35.1,25.9064 L45.5,29.5243 L45.5,59.2722 L18.2,49.7822 L18.2,49.4 C18.2,48.682075 17.617925,48.1 16.9,48.1 C16.182075,48.1 15.6,48.682075 15.6,49.4 L15.6,50.7 C15.6001625,51.2529875 15.9501875,51.7452 16.4723,51.9272 L46.3723,62.3272 L46.3957,62.3272 C46.5166,62.3670125 46.6428625,62.3887875 46.7701,62.3922 C46.7805,62.3922 46.7896,62.3922 46.8,62.3922 C46.949825,62.39025 47.098025,62.3621375 47.2381,62.309 C47.2499625,62.3075375 47.2616625,62.3052625 47.2732,62.3025 L77.1732,50.6025 C77.6689875,50.4088 77.9965875,49.93235 78,49.4 L78,18.2 L78,18.1896 C78,18.1896 78,18.1792 78,18.174 C77.9952875,18.02125 77.9631125,17.870775 77.9051,17.7294 Z M21.0964,18.2819 L46.8,10.4585 L51.5411,11.9015 L27.69,20.5764 L21.0964,18.2819 Z M32.5,34.4799 L28.6,32.9199 L28.6,24.0201 L32.5,25.5801 L32.5,34.4799 Z M34.6931,23.01 L31.5731,21.9258 L55.6803,13.1599 L59.592,14.3533 L34.6931,23.01 Z M46.8,27.2233 L38.6503,24.3893 L63.8131,15.6364 L72.5062,18.2819 L46.8,27.2233 Z M75.4,48.5121 L48.1,59.1955 L48.1,29.5243 L75.4,20.0343 L75.4,48.5121 Z" id="Shape"></path>
                        <rect id="Rectangle-path" x="0" y="36.4" width="5.2" height="2.6"></rect>
                        <rect id="Rectangle-path" x="3.9" y="44.2" width="3.9" height="2.6"></rect>
                        <path d="M18.2,44.2 L18.2,41.6 C18.2,40.882075 17.617925,40.3 16.9,40.3 C16.182075,40.3 15.6,40.882075 15.6,41.6 L15.6,44.2 L10.4,44.2 L10.4,46.8 L32.5,46.8 L32.5,44.2 L18.2,44.2 Z" id="Shape"></path>
                        <rect id="Rectangle-path" x="3.9" y="27.3" width="3.9" height="2.6"></rect>
                        <path d="M18.2,36.4 L18.2,32.5 C18.2,31.782075 17.617925,31.2 16.9,31.2 C16.182075,31.2 15.6,31.782075 15.6,32.5 L15.6,36.4 L7.8,36.4 L7.8,39 L26,39 L26,36.4 L18.2,36.4 Z" id="Shape"></path>
                        <rect id="Rectangle-path" x="44.2" y="0" width="19.5" height="2.6"></rect>
                        <rect id="Rectangle-path" x="37.7" y="0" width="3.9" height="2.6"></rect>
                        <rect id="Rectangle-path" x="14.3" y="62.4" width="19.5" height="2.6"></rect>
                        <rect id="Rectangle-path" x="7.8" y="62.4" width="3.9" height="2.6"></rect>
                        <path d="M55.1811,28.7365 C54.5946375,28.4435125 53.8819125,28.6329875 53.5184,29.1785 L50.1969,34.1601 L52.3601,35.6031 L53.3,34.19 L53.3,37.7 L55.9,37.7 L55.9,32.0034 L57.7811,32.9446 L58.9446,30.6189 L55.1811,28.7365 Z" id="Shape"></path>
                        <path d="M64.2811,24.8365 C63.6946375,24.5435125 62.9819125,24.7329875 62.6184,25.2785 L59.2969,30.2601 L61.4601,31.7031 L62.4,30.29 L62.4,33.8 L65,33.8 L65,28.1034 L66.8811,29.0446 L68.0446,26.7189 L64.2811,24.8365 Z" id="Shape"></path>
                    </g>
                </g>
            </g>
        </g>
    </g>
</svg>