<?xml version="1.0" encoding="UTF-8"?>
<svg width="54px" height="54px" viewBox="0 0 54 54" version="1.1" xmlns="http://www.w3.org/2000/svg" xmlns:xlink="http://www.w3.org/1999/xlink">
    <!-- Generator: Sketch 51.3 (57544) - http://www.bohemiancoding.com/sketch -->
    <title>002-discount</title>
    <desc>Created with Sketch.</desc>
    <defs></defs>
    <g id="Page-1" stroke="none" stroke-width="1" fill="none" fill-rule="evenodd">
        <g id="2.-Product-page---Pure-oxygen" transform="translate(-720.000000, -750.000000)" fill="#1E684C" fill-rule="nonzero">
            <g id="Group" transform="translate(0.000000, 698.000000)">
                <g id="Group-23" transform="translate(720.000000, 35.000000)">
                    <g id="002-discount" transform="translate(0.000000, 17.000000)">
                        <path d="M53.3422969,26.8672148 C54.4222969,25.1120039 54.1512422,22.8761719 52.6831172,21.4299844 L50.5779609,19.3561523 C50.1003984,18.8856563 49.8536016,18.2321719 49.9012734,17.5633945 L50.1122109,14.6015156 C50.2593398,12.536332 48.9774727,10.6766016 46.995293,10.0790156 L44.2076484,9.23864063 C43.5614414,9.04373438 43.0369453,8.57692969 42.7686328,7.95772266 L41.601832,5.26594922 C40.7862422,3.38396484 38.7326602,2.30491406 36.7204219,2.69978906 L33.8920664,3.25487109 C33.2264531,3.38554688 32.54175,3.21605859 32.0138789,2.78985938 L29.762332,0.972 C28.1617383,-0.320308594 25.8382617,-0.320308594 24.237668,0.972 L21.9861211,2.78985938 C21.4581445,3.21605859 20.7734414,3.38533594 20.1079336,3.25487109 L17.2792617,2.69968359 C15.2671289,2.30470313 13.2139687,3.38375391 12.397957,5.26542188 L11.2305234,7.95793359 C10.9622109,8.57703516 10.4376094,9.04383984 9.79161328,9.23864063 L7.00449609,10.0789102 C5.02231641,10.6764961 3.74055469,12.5361211 3.88768359,14.6013047 L4.09862109,17.5633945 C4.14629297,18.2321719 3.89949609,18.8855508 3.42193359,19.3561523 L1.31667187,21.4299844 C-0.151242187,22.8761719 -0.422296875,25.1120039 0.657703125,26.8671094 L2.21431641,29.3966719 C2.56510547,29.9668359 2.64874219,30.6593438 2.44392188,31.2964805 L1.53319922,34.1287383 C0.901335938,36.093832 1.69962891,38.2021523 3.4745625,39.2559961 L5.99748047,40.7538633 C6.57566016,41.0971641 6.97211719,41.6741836 7.08507422,42.3370547 L7.58162109,45.2497852 C7.93072266,47.2974609 9.62360156,48.7995469 11.6981719,48.9026953 L14.5880156,49.0463438 C15.2639648,49.0798828 15.8866523,49.4081016 16.2961875,49.9470469 L18.0581484,52.26525 C18.9075938,53.3829023 20.2285898,53.9968359 21.5740547,53.9968359 C22.1987461,53.9968359 22.8290273,53.8644727 23.4195469,53.5889883 L26.0316914,52.3691367 C26.6471016,52.0818398 27.3530039,52.0818398 27.9682031,52.3691367 L30.5802422,53.5889883 C32.4430312,54.4586836 34.6979531,53.902125 35.941957,52.2651445 L37.7032852,49.9474688 C38.1129258,49.408418 38.7356133,49.0800938 39.4117734,49.0465547 L42.3020391,48.9029063 C44.3767148,48.7997578 46.0694883,47.2976719 46.4185898,45.2498906 L46.9150312,42.3372656 C47.0279883,41.6745 47.4244453,41.097375 48.002625,40.7541797 L50.525543,39.2563125 C52.300582,38.2024688 53.0987695,36.094043 52.4669062,34.1290547 L51.5561836,31.2966914 C51.3512578,30.6593438 51.4348945,29.9669414 51.7857891,29.3968828 L53.3422969,26.8672148 Z M49.9894453,28.2912539 C49.3153945,29.3868633 49.1546602,30.7173516 49.548375,31.9418438 L50.4590977,34.774207 C50.7878437,35.796832 50.3724023,36.8940234 49.4488125,37.4424609 L46.9258945,38.9403281 C45.8147812,39.6000352 45.0529805,40.7088281 44.8359258,41.9824688 L44.3394844,44.8950938 C44.1577617,45.96075 43.2768867,46.7425898 42.1972031,46.7960625 L39.3069375,46.9397109 C38.007668,47.0042578 36.811125,47.6352773 36.0240117,48.6710859 L34.2626836,50.9887617 C33.6153164,51.8405273 32.4417656,52.1301445 31.4724023,51.6776836 L28.8603633,50.457832 C27.6779531,49.9057031 26.321625,49.9057031 25.1392148,50.457832 L22.5270703,51.6776836 C21.557707,52.1301445 20.3842617,51.8407383 19.7368945,50.9889727 L17.9749336,48.6707695 C17.1878203,47.6351719 15.9913828,47.0042578 14.6923242,46.9397109 L11.8024805,46.7960625 C10.7229023,46.7424844 9.84202734,45.96075 9.66030469,44.8951992 L9.16386328,41.9825742 C8.94670312,40.7088281 8.18500781,39.6000352 7.07389453,38.9404336 L4.55097656,37.4425664 C3.62728125,36.8942344 3.21173437,35.7969375 3.54069141,34.7743125 L4.45141406,31.9419492 C4.84502344,30.717457 4.68439453,29.3869688 4.01023828,28.2913594 L2.453625,25.7616914 C1.89158203,24.848332 2.03269922,23.6848008 2.79660938,22.9321758 L4.90187109,20.8583437 C5.81976562,19.9541602 6.29363672,18.6985547 6.20219531,17.413418 L5.99125781,14.4513281 C5.9146875,13.376707 6.58167187,12.4089258 7.61326172,12.0978984 L10.4003789,11.2576289 C11.6418516,10.8834258 12.6497109,9.98630859 13.1654531,8.79683203 L14.3328867,6.10442578 C14.6987578,5.26067578 15.5425078,4.72700391 16.4389922,4.72700391 C16.582957,4.72700391 16.7281875,4.74082031 16.8729961,4.76929687 L19.701668,5.32448437 C20.9810039,5.57539453 22.2965156,5.24970703 23.3108086,4.43084766 L25.5621445,2.61267187 C26.3951367,1.94009766 27.6042305,1.94009766 28.4372227,2.61267187 L30.6887695,4.43042578 C31.703168,5.24949609 33.0187852,5.57507812 34.2980156,5.3240625 L37.1263711,4.76898047 C38.1738867,4.56321094 39.2421797,5.1249375 39.6666914,6.10432031 L40.8335977,8.79609375 C41.3494453,9.98588672 42.3573047,10.8830039 43.5989883,11.2573125 L46.3866328,12.0976875 C47.4182227,12.4086094 48.0853125,13.3764961 48.0087422,14.4512227 L47.7978047,17.413207 C47.7062578,18.6984492 48.1801289,19.9539492 49.0981289,20.8582383 L51.2032852,22.9320703 C51.9673008,23.6846953 52.1083125,24.8481211 51.5462695,25.7615859 L49.9894453,28.2912539 Z" id="Shape"></path>
                        <path d="M14.3434336,12.8204648 C13.933793,12.4066055 13.2661758,12.4032305 12.8522109,12.8129766 L12.8368125,12.828375 C12.4229531,13.2380156 12.4195781,13.9057383 12.8293242,14.3195977 C13.0356211,14.5278984 13.3070977,14.6321016 13.5787852,14.6321016 C13.8468867,14.6321016 14.1149883,14.5304297 14.3206523,14.3270859 L14.3360508,14.3116875 C14.7498047,13.9020469 14.7531797,13.2343242 14.3434336,12.8204648 Z" id="Shape"></path>
                        <path d="M46.6959727,23.3180859 C45.9548437,19.3340039 44.0430117,15.7080938 41.1670898,12.8321719 C34.6806562,6.34584375 24.6500508,5.08454297 16.7740664,9.76503516 C16.2734063,10.0625625 16.1087695,10.7096133 16.4062969,11.2102734 C16.7039297,11.7109336 17.350875,11.8754648 17.8515352,11.578043 C24.8975859,7.39051172 33.8720273,8.51966016 39.6758672,14.3235 C44.8651406,19.5128789 46.3708125,27.2331914 43.5116602,33.9916289 C43.2846914,34.5279375 43.5356016,35.1467227 44.0719102,35.3735859 C44.2060664,35.4303281 44.3452852,35.4571172 44.4822891,35.4571172 C44.8931953,35.4571172 45.2837461,35.2153828 45.4539727,34.8132305 C46.9900195,31.1824688 47.4193828,27.207457 46.6959727,23.3180859 Z" id="Shape"></path>
                        <path d="M41.1706758,39.6785039 C40.7610352,39.26475 40.0933125,39.2612695 39.6794531,39.6710156 L39.6640547,39.6864141 C39.2501953,40.0960547 39.2468203,40.7637773 39.6565664,41.1776367 C39.8628633,41.3859375 40.1343398,41.4901406 40.4060273,41.4901406 C40.6741289,41.4901406 40.9423359,41.3884688 41.1478945,41.185125 L41.163293,41.1697266 C41.5770469,40.7600859 41.5804219,40.0923633 41.1706758,39.6785039 Z" id="Shape"></path>
                        <path d="M37.5938086,42.7879336 C37.2962813,42.2872734 36.6492305,42.1227422 36.1485703,42.4201641 C33.3041836,44.1106172 30.1463438,44.9345391 27.0089648,44.9344336 C22.3743516,44.9342227 17.7850898,43.1355586 14.3242383,39.674707 C9.13496484,34.4853281 7.62929297,26.7650156 10.4884453,20.0065781 C10.7154141,19.4702695 10.4645039,18.8514844 9.92819531,18.6246211 C9.39199219,18.3978633 8.77310156,18.6485625 8.54623828,19.1849766 C7.01019141,22.8157383 6.58082813,26.79075 7.30423828,30.6802266 C8.04536719,34.6643086 9.95719922,38.2902187 12.8331211,41.1661406 C16.701082,45.0339961 21.8291836,47.0439141 27.0092813,47.0439141 C30.5160117,47.0439141 34.0467891,46.12275 37.2260391,44.2332773 C37.7265938,43.9356445 37.8912305,43.2885938 37.5938086,42.7879336 Z" id="Shape"></path>
                        <path d="M31.3578633,18.3673828 C30.8507695,18.0810352 30.2075156,18.2600156 29.9212734,18.7672148 L20.1454805,36.0838125 C19.8592383,36.5910117 20.0381133,37.2341602 20.5453125,37.5204023 C20.7092109,37.6128984 20.8870313,37.6568789 21.0627422,37.6568789 C21.4307227,37.6568789 21.7882617,37.4638711 21.9819023,37.1205703 L31.7576953,19.8039727 C32.044043,19.2967734 31.8650625,18.653625 31.3578633,18.3673828 Z" id="Shape"></path>
                        <path d="M33.3526992,29.576707 C30.9106758,29.576707 28.9238555,31.5634219 28.9238555,34.0055508 C28.9238555,36.4475742 30.9105703,38.4343945 33.3526992,38.4343945 C35.7947227,38.4343945 37.781543,36.4476797 37.781543,34.0055508 C37.781543,31.5634219 35.7948281,29.576707 33.3526992,29.576707 Z M33.3526992,36.3253359 C32.0734687,36.3253359 31.0328086,35.2846758 31.0328086,34.0054453 C31.0328086,32.7262148 32.0734688,31.6855547 33.3526992,31.6855547 C34.6319297,31.6855547 35.6725898,32.7262148 35.6725898,34.0054453 C35.6725898,35.2846758 34.6319297,36.3253359 33.3526992,36.3253359 Z" id="Shape"></path>
                        <path d="M20.6471953,15.563707 C18.2051719,15.563707 16.2183516,17.5504219 16.2183516,19.9925508 C16.2183516,22.4346797 18.2050664,24.4213945 20.6471953,24.4213945 C23.0892188,24.4213945 25.0760391,22.4346797 25.0760391,19.9925508 C25.0760391,17.5504219 23.0893242,15.563707 20.6471953,15.563707 Z M20.6471953,22.3123359 C19.3679648,22.3123359 18.3273047,21.2716758 18.3273047,19.9924453 C18.3273047,18.7132148 19.3679648,17.6725547 20.6471953,17.6725547 C21.9264258,17.6725547 22.9670859,18.7132148 22.9670859,19.9924453 C22.9670859,21.2716758 21.9264258,22.3123359 20.6471953,22.3123359 Z" id="Shape"></path>
                    </g>
                </g>
            </g>
        </g>
    </g>
</svg>