<?xml version="1.0" encoding="UTF-8"?>
<svg width="74px" height="74px" viewBox="0 0 74 74" version="1.1" xmlns="http://www.w3.org/2000/svg" xmlns:xlink="http://www.w3.org/1999/xlink">
    <!-- Generator: Sketch 51.3 (57544) - http://www.bohemiancoding.com/sketch -->
    <title>002-discount</title>
    <desc>Created with Sketch.</desc>
    <defs></defs>
    <g id="Page-1" stroke="none" stroke-width="1" fill="none" fill-rule="evenodd">
        <g id="2.-Product-page---Pure-oxygen" transform="translate(-682.000000, -1513.000000)" fill="#42C0D7" fill-rule="nonzero">
            <g id="Group-19" transform="translate(217.000000, 1493.000000)">
                <g id="Group-17" transform="translate(367.000000, 0.000000)">
                    <g id="002-discount" transform="translate(98.000000, 20.000000)">
                        <path d="M73.0987031,36.8180352 C74.5787031,34.4127461 74.2072578,31.3488281 72.1953828,29.3670156 L69.3105391,26.5250977 C68.6561016,25.8803438 68.3178984,24.9848281 68.3832266,24.0683555 L68.6722891,20.0094844 C68.8739102,17.179418 67.1172773,14.6308984 64.400957,13.8119844 L60.5808516,12.6603594 C59.6953086,12.3932656 58.9765547,11.7535703 58.6088672,10.9050273 L57.009918,7.21630078 C55.8922578,4.63728516 53.0780898,3.15858594 50.3205781,3.69971094 L46.4446836,4.46037891 C45.5325469,4.63945313 44.59425,4.40719141 43.8708711,3.82314063 L40.785418,1.332 C38.5920117,-0.438941406 35.4079883,-0.438941406 33.214582,1.332 L30.1291289,3.82314063 C29.4056055,4.40719141 28.4673086,4.63916406 27.5553164,4.46037891 L23.6789883,3.69956641 C20.9216211,3.15829688 18.1080312,4.63699609 16.989793,7.21557813 L15.3899766,10.9053164 C15.0222891,11.7537148 14.3033906,12.3934102 13.4181367,12.6603594 L9.59875391,13.8118398 C6.88243359,14.6307539 5.12594531,17.1791289 5.32756641,20.0091953 L5.61662891,24.0683555 C5.68195703,24.9848281 5.34375391,25.8801992 4.68931641,26.5250977 L1.80432812,29.3670156 C-0.207257812,31.3488281 -0.578703125,34.4127461 0.901296875,36.8178906 L3.03443359,40.2843281 C3.51514453,41.0656641 3.62975781,42.0146563 3.34907813,42.8877695 L2.10105078,46.7690117 C1.23516406,49.461918 2.32912109,52.3510977 4.7614375,53.7952539 L8.21876953,55.8478867 C9.01108984,56.3183359 9.55438281,57.1090664 9.70917578,58.0174453 L10.3896289,62.0089648 C10.8680273,64.8150391 13.1878984,66.8734531 16.0308281,67.0148047 L19.9909844,67.2116563 C20.9172852,67.2576172 21.7705977,67.7073984 22.3318125,68.4459531 L24.7463516,71.62275 C25.9104063,73.1543477 27.7206602,73.9956641 29.5644453,73.9956641 C30.4205039,73.9956641 31.2842227,73.8142773 32.0934531,73.4367617 L35.6730586,71.7651133 C36.5163984,71.3714102 37.4837461,71.3714102 38.3267969,71.7651133 L41.9062578,73.4367617 C44.4589688,74.6285664 47.5490469,73.865875 49.253793,71.6226055 L51.6674648,68.4465313 C52.2288242,67.707832 53.0821367,67.2579063 54.0087266,67.2119453 L57.9694609,67.0150938 C60.8125352,66.8737422 63.1322617,64.8153281 63.6106602,62.0091094 L64.2909688,58.0177344 C64.4457617,57.1095 64.9890547,56.318625 65.781375,55.8483203 L69.238707,53.7956875 C71.671168,52.3515313 72.7649805,49.462207 71.8990938,46.7694453 L70.6510664,42.8880586 C70.3702422,42.0146563 70.4848555,41.0658086 70.9657109,40.2846172 L73.0987031,36.8180352 Z M68.5040547,38.7694961 C67.5803555,40.2708867 67.3600898,42.0941484 67.899625,43.7721563 L69.1476523,47.653543 C69.5981562,49.054918 69.0288477,50.5584766 67.7631875,51.3100391 L64.3058555,53.3626719 C62.7832187,54.2667148 61.7392695,55.7861719 61.4418242,57.5315313 L60.7615156,61.5229063 C60.5124883,62.98325 59.3053633,64.0546602 57.8257969,64.1279375 L53.8650625,64.3247891 C52.084582,64.4132422 50.444875,65.2779727 49.3662383,66.6974141 L46.9525664,69.8734883 C46.0654336,71.0407227 44.4572344,71.4376055 43.1288477,70.8175664 L39.5493867,69.145918 C37.9290469,68.3892969 36.070375,68.3892969 34.4500352,69.145918 L30.8704297,70.8175664 C29.542043,71.4376055 27.9339883,71.0410117 27.0468555,69.8737773 L24.6323164,66.6969805 C23.5536797,65.2778281 21.9141172,64.4132422 20.1339258,64.3247891 L16.1737695,64.1279375 C14.6943477,64.0545156 13.4872227,62.98325 13.2381953,61.5230508 L12.5578867,57.5316758 C12.2602969,55.7861719 11.2164922,54.2667148 9.69385547,53.3628164 L6.23652344,51.3101836 C4.97071875,50.5587656 4.40126562,49.0550625 4.85205859,47.6536875 L6.10008594,43.7723008 C6.63947656,42.094293 6.41935547,40.2710313 5.49551172,38.7696406 L3.362375,35.3030586 C2.59216797,34.051418 2.78555078,32.4569492 3.83239062,31.4255742 L6.71737891,28.5836563 C7.97523437,27.3445898 8.62461328,25.6239453 8.49930469,23.862832 L8.21024219,19.8036719 C8.1053125,18.331043 9.01932812,17.0048242 10.4329883,16.5786016 L14.2523711,15.4271211 C15.9536484,14.9143242 17.3347891,13.6849414 18.0415469,12.054918 L19.6413633,8.36532422 C20.1427422,7.20907422 21.2989922,6.47774609 22.5275078,6.47774609 C22.724793,6.47774609 22.9238125,6.49667969 23.1222539,6.53570312 L26.998582,7.29651562 C28.7517461,7.64035547 30.5544844,7.19404297 31.9444414,6.07190234 L35.0296055,3.58032812 C36.1711133,2.65865234 37.8280195,2.65865234 38.9695273,3.58032812 L42.0549805,6.07132422 C43.445082,7.19375391 45.2479648,7.63992187 47.0009844,7.2959375 L50.8768789,6.53526953 C52.3123633,6.25328906 53.7763203,7.0230625 54.3580586,8.36517969 L55.9571523,12.0539063 C56.6640547,13.6843633 58.0451953,14.9137461 59.7467617,15.4266875 L63.5668672,16.5783125 C64.9805273,17.0043906 65.8946875,18.3307539 65.7897578,19.8035273 L65.5006953,23.862543 C65.3752422,25.6238008 66.0246211,27.3443008 67.2826211,28.5835117 L70.1674648,31.4254297 C71.2144492,32.4568047 71.4076875,34.0511289 70.6374805,35.3029141 L68.5040547,38.7694961 Z" id="Shape"></path>
                        <path d="M19.6558164,17.5687852 C19.094457,17.0016445 18.1795742,16.9970195 17.6122891,17.5585234 L17.5911875,17.579625 C17.0240469,18.1409844 17.0194219,19.0560117 17.5809258,19.6231523 C17.8636289,19.9086016 18.2356523,20.0513984 18.6079648,20.0513984 C18.9753633,20.0513984 19.3427617,19.9120703 19.6245977,19.6334141 L19.6456992,19.6123125 C20.2126953,19.0509531 20.2173203,18.1359258 19.6558164,17.5687852 Z" id="Shape"></path>
                        <path d="M63.9907773,31.9544141 C62.9751563,26.4947461 60.3552383,21.5259063 56.4141602,17.5848281 C47.5253438,8.69615625 33.7796992,6.96770703 22.9866836,13.3817148 C22.3005938,13.7894375 22.0749805,14.6761367 22.4827031,15.3622266 C22.8905703,16.0483164 23.777125,16.2737852 24.4632148,15.866207 C34.1189141,10.1277383 46.4172227,11.6750898 54.3706328,19.6285 C61.4818594,26.7398711 63.5451875,37.3195586 59.6270898,46.5811211 C59.3160586,47.3160625 59.6598984,48.1640273 60.3948398,48.4749141 C60.5786836,48.5526719 60.7694648,48.5893828 60.9572109,48.5893828 C61.5203047,48.5893828 62.0555039,48.2581172 62.2887773,47.7070195 C64.3937305,42.7315312 64.9821172,37.284293 63.9907773,31.9544141 Z" id="Shape"></path>
                        <path d="M56.4190742,54.3742461 C55.8577148,53.80725 54.9426875,53.8024805 54.3755469,54.3639844 L54.3544453,54.3850859 C53.7873047,54.9464453 53.7826797,55.8614727 54.3441836,56.4286133 C54.6268867,56.7140625 54.9989102,56.8568594 55.3712227,56.8568594 C55.7386211,56.8568594 56.1061641,56.7175313 56.3878555,56.438875 L56.408957,56.4177734 C56.9759531,55.8564141 56.9805781,54.9413867 56.4190742,54.3742461 Z" id="Shape"></path>
                        <path d="M51.5174414,58.6353164 C51.1097187,57.9492266 50.2230195,57.7237578 49.5369297,58.1313359 C45.6390664,60.4478828 41.3116563,61.5769609 37.0122852,61.5768164 C30.6611484,61.5765273 24.3721602,59.1116914 19.6295117,54.369043 C12.5182852,47.2576719 10.454957,36.6779844 14.3730547,27.4164219 C14.6840859,26.6814805 14.3402461,25.8335156 13.6053047,25.5226289 C12.8705078,25.2118867 12.0223984,25.5554375 11.7115117,26.2905234 C9.60655859,31.2660117 9.01817188,36.71325 10.0095117,42.0432734 C11.0251328,47.5029414 13.6450508,52.4717812 17.5861289,56.4128594 C22.886668,61.7132539 29.9140664,64.4675859 37.0127188,64.4675859 C41.8182383,64.4675859 46.6567109,63.20525 51.0134609,60.6159727 C51.6994063,60.2081055 51.9250195,59.3214063 51.5174414,58.6353164 Z" id="Shape"></path>
                        <path d="M42.9718867,25.1701172 C42.2769805,24.7777148 41.3954844,25.0229844 41.0032266,25.7180352 L27.6067695,49.4481875 C27.2145117,50.1432383 27.4596367,51.0245898 28.1546875,51.4168477 C28.3792891,51.5436016 28.6229688,51.6038711 28.8637578,51.6038711 C29.3680273,51.6038711 29.8579883,51.3393789 30.1233477,50.8689297 L43.5198047,27.1387773 C43.912207,26.4437266 43.6669375,25.562375 42.9718867,25.1701172 Z" id="Shape"></path>
                        <path d="M45.7055508,40.531043 C42.3590742,40.531043 39.6363945,43.2535781 39.6363945,46.6001992 C39.6363945,49.9466758 42.3589297,52.6693555 45.7055508,52.6693555 C49.0520273,52.6693555 51.774707,49.9468203 51.774707,46.6001992 C51.774707,43.2535781 49.0521719,40.531043 45.7055508,40.531043 Z M45.7055508,49.7791641 C43.9525312,49.7791641 42.5264414,48.3530742 42.5264414,46.6000547 C42.5264414,44.8470352 43.9525313,43.4209453 45.7055508,43.4209453 C47.4585703,43.4209453 48.8846602,44.8470352 48.8846602,46.6000547 C48.8846602,48.3530742 47.4585703,49.7791641 45.7055508,49.7791641 Z" id="Shape"></path>
                        <path d="M28.2943047,21.328043 C24.9478281,21.328043 22.2251484,24.0505781 22.2251484,27.3971992 C22.2251484,30.7438203 24.9476836,33.4663555 28.2943047,33.4663555 C31.6407812,33.4663555 34.3634609,30.7438203 34.3634609,27.3971992 C34.3634609,24.0505781 31.6409258,21.328043 28.2943047,21.328043 Z M28.2943047,30.5761641 C26.5412852,30.5761641 25.1151953,29.1500742 25.1151953,27.3970547 C25.1151953,25.6440352 26.5412852,24.2179453 28.2943047,24.2179453 C30.0473242,24.2179453 31.4734141,25.6440352 31.4734141,27.3970547 C31.4734141,29.1500742 30.0473242,30.5761641 28.2943047,30.5761641 Z" id="Shape"></path>
                    </g>
                </g>
            </g>
        </g>
    </g>
</svg>