<?xml version="1.0" encoding="UTF-8"?>
<svg width="36px" height="36px" viewBox="0 0 36 36" version="1.1" xmlns="http://www.w3.org/2000/svg" xmlns:xlink="http://www.w3.org/1999/xlink">
    <!-- Generator: Sketch 51.3 (57544) - http://www.bohemiancoding.com/sketch -->
    <title>003-instagram</title>
    <desc>Created with Sketch.</desc>
    <defs></defs>
    <g id="Page-1" stroke="none" stroke-width="1" fill="none" fill-rule="evenodd">
        <g id="2.-Product-page---Pure-oxygen" transform="translate(-1105.000000, -2012.000000)" fill="#E6F2F5" fill-rule="nonzero">
            <g id="Group-6-Copy-4" transform="translate(0.000000, 1909.000000)">
                <g id="Group-12-Copy" transform="translate(995.000000, 60.000000)">
                    <g id="003-instagram" transform="translate(110.000000, 43.000000)">
                        <path d="M21.4453125,18 C21.4453125,19.902832 19.902832,21.4453125 18,21.4453125 C16.097168,21.4453125 14.5546875,19.902832 14.5546875,18 C14.5546875,16.097168 16.097168,14.5546875 18,14.5546875 C19.902832,14.5546875 21.4453125,16.097168 21.4453125,18 Z" id="Shape"></path>
                        <path d="M26.057373,11.9042359 C25.8917541,11.4554443 25.627533,11.0492248 25.2842102,10.7157898 C24.9507752,10.372467 24.5448303,10.1082459 24.0957641,9.94262695 C23.7315674,9.80117796 23.1844482,9.6328125 22.1767273,9.58694456 C21.0866089,9.53723145 20.7597656,9.52651976 18,9.52651976 C15.2399597,9.52651976 14.9131164,9.5369568 13.8232727,9.58666992 C12.8155518,9.6328125 12.268158,9.80117796 11.9042359,9.94262695 C11.4551697,10.1082459 11.0489502,10.372467 10.7157898,10.7157898 C10.372467,11.0492248 10.1082459,11.4551697 9.94235231,11.9042359 C9.80090332,12.2684326 9.63253786,12.8158264 9.58666992,13.8235473 C9.5369568,14.9133911 9.52624512,15.2402344 9.52624512,18.0002746 C9.52624512,20.7600403 9.5369568,21.0868836 9.58666992,22.177002 C9.63253786,23.1847229 9.80090332,23.731842 9.94235231,24.0960388 C10.1082459,24.545105 10.3721924,24.9510498 10.7155152,25.2844848 C11.0489502,25.6278076 11.454895,25.8920288 11.9039612,26.0576477 C12.268158,26.1993713 12.8155518,26.3677368 13.8232727,26.4136047 C14.9131164,26.4633179 15.2396851,26.4737549 17.9997254,26.4737549 C20.7600403,26.4737549 21.0868836,26.4633179 22.1764527,26.4136047 C23.1841736,26.3677368 23.7315674,26.1993713 24.0957641,26.0576477 C24.9971924,25.7099304 25.7096558,24.997467 26.057373,24.0960388 C26.198822,23.731842 26.3671875,23.1847229 26.4133301,22.177002 C26.4630432,21.0868836 26.4734802,20.7600403 26.4734802,18.0002746 C26.4734802,15.2402344 26.4630432,14.9133911 26.4133301,13.8235473 C26.3674621,12.8158264 26.1990967,12.2684326 26.057373,11.9042359 Z M18,23.3074951 C15.068573,23.3074951 12.6922302,20.931427 12.6922302,18 C12.6922302,15.068573 15.068573,12.6925049 18,12.6925049 C20.9311523,12.6925049 23.3074951,15.068573 23.3074951,18 C23.3074951,20.931427 20.9311523,23.3074951 18,23.3074951 Z M23.517334,13.7230225 C22.8323364,13.7230225 22.2769775,13.1676636 22.2769775,12.482666 C22.2769775,11.7976684 22.8323364,11.2423096 23.517334,11.2423096 C24.2023316,11.2423096 24.7576904,11.7976684 24.7576904,12.482666 C24.7574158,13.1676636 24.2023316,13.7230225 23.517334,13.7230225 Z" id="Shape"></path>
                        <path d="M18,0 C8.0603943,0 0,8.0603943 0,18 C0,27.9396057 8.0603943,36 18,36 C27.9396057,36 36,27.9396057 36,18 C36,8.0603943 27.9396057,0 18,0 Z M28.2735901,22.261322 C28.2236023,23.3616028 28.048645,24.112793 27.7932129,24.7703247 C27.2562561,26.1587219 26.1587219,27.2562561 24.7703247,27.7932129 C24.1130676,28.048645 23.3616028,28.2233277 22.2615967,28.2735901 C21.1593933,28.3238525 20.8072815,28.3359375 18.0002746,28.3359375 C15.1929932,28.3359375 14.841156,28.3238525 13.738678,28.2735901 C12.6386719,28.2233277 11.887207,28.048645 11.22995,27.7932129 C10.5400086,27.5336609 9.91543577,27.1268921 9.39907835,26.6009216 C8.87338259,26.0848389 8.46661373,25.4599914 8.20706175,24.7703247 C7.95162966,24.1130676 7.77667233,23.3616028 7.72668457,22.2615967 C7.67587282,21.1591187 7.6640625,20.8070068 7.6640625,18 C7.6640625,15.1929932 7.67587282,14.8408813 7.72640993,13.738678 C7.77639769,12.6383972 7.9510803,11.887207 8.20651247,11.2296753 C8.46606445,10.5400086 8.87310788,9.91516113 9.39907835,9.39907835 C9.91516113,8.87310788 10.5400086,8.46633909 11.2296753,8.20678711 C11.887207,7.95135502 12.6383972,7.77667233 13.738678,7.72640993 C14.8408813,7.67614746 15.1929932,7.6640625 18,7.6640625 C20.8070068,7.6640625 21.1591187,7.67614746 22.261322,7.72668457 C23.3616028,7.77667233 24.112793,7.95135502 24.7703247,8.20651247 C25.4599914,8.46606445 26.0848389,8.87310788 26.6011963,9.39907835 C27.1268921,9.91543577 27.5339355,10.5400086 27.7932129,11.2296753 C28.0489197,11.887207 28.2236023,12.6383972 28.2738648,13.738678 C28.3241272,14.8408813 28.3359375,15.1929932 28.3359375,18 C28.3359375,20.8070068 28.3241272,21.1591187 28.2735901,22.261322 Z" id="Shape"></path>
                    </g>
                </g>
            </g>
        </g>
    </g>
</svg>