<?xml version="1.0" encoding="UTF-8"?>
<svg width="23px" height="22px" viewBox="0 0 23 22" version="1.1" xmlns="http://www.w3.org/2000/svg" xmlns:xlink="http://www.w3.org/1999/xlink">
    <!-- Generator: Sketch 51.3 (57544) - http://www.bohemiancoding.com/sketch -->
    <title>003-cart</title>
    <desc>Created with Sketch.</desc>
    <defs></defs>
    <g id="Page-1" stroke="none" stroke-width="1" fill="none" fill-rule="evenodd">
        <g id="1.-Homepage" transform="translate(-1238.000000, -29.000000)" fill="#002F47" fill-rule="nonzero">
            <g id="Header">
                <g id="Group-8" transform="translate(935.000000, 21.000000)">
                    <g id="Group-7" transform="translate(303.000000, 0.000000)">
                        <g id="003-cart" transform="translate(0.000000, 8.000000)">
                            <path d="M22.6575061,2.91548988 C22.5326761,2.75948583 22.3437166,2.66868016 22.1438907,2.66868016 L4.63834818,2.66868016 L4.14882591,0.547506073 C4.07993117,0.249080972 3.81419433,0.0376761134 3.50793117,0.0376761134 L0.657728745,0.0376761134 C0.294506073,0.0376761134 0,0.332182186 0,0.695449393 C0,1.0587166 0.294506073,1.35317814 0.657728745,1.35317814 L2.98469636,1.35317814 L6.30749798,15.7520891 C6.37634818,16.0505142 6.64212955,16.261919 6.94839271,16.261919 L20.1267935,16.261919 C20.4900607,16.261919 20.7845223,15.967413 20.7845223,15.6041903 C20.7845223,15.2409231 20.4900162,14.9464615 20.1267935,14.9464615 L7.47167206,14.9464615 L6.96576113,12.7539879 L20.1707045,12.7539879 C20.4783482,12.7539879 20.7448866,12.5407571 20.8124008,12.2406397 L22.785587,3.47078947 C22.8294534,3.27581781 22.782336,3.07153846 22.6575061,2.91548988 Z M19.6444858,11.4384858 L6.66217004,11.4384858 L4.94193927,3.98413765 L21.3216964,3.98413765 L19.6444858,11.4384858 Z" id="Shape"></path>
                            <path d="M9.64682186,17.1388907 C8.31702429,17.1388907 7.23510526,18.2207652 7.23510526,19.5506073 C7.23510526,20.8804494 8.31697976,21.9623239 9.64682186,21.9623239 C10.9766194,21.9623239 12.0585385,20.8804494 12.0585385,19.5506073 C12.0585385,18.2207652 10.976664,17.1388907 9.64682186,17.1388907 Z M9.64682186,20.6468664 C9.04235628,20.6468664 8.55060729,20.1550729 8.55060729,19.5506073 C8.55060729,18.9461417 9.04235628,18.4543927 9.64682186,18.4543927 C10.2512874,18.4543927 10.7430364,18.9461417 10.7430364,19.5506073 C10.7430364,20.1550729 10.2512874,20.6468664 9.64682186,20.6468664 Z" id="Shape"></path>
                            <path d="M17.5397004,17.1388907 C16.2099028,17.1388907 15.1279838,18.2207652 15.1279838,19.5506073 C15.1279838,20.8804494 16.2098583,21.9623239 17.5397004,21.9623239 C18.869498,21.9623239 19.951417,20.8804494 19.951417,19.5506073 C19.951417,18.2207652 18.8695425,17.1388907 17.5397004,17.1388907 Z M17.5397004,20.6468664 C16.9352348,20.6468664 16.4434858,20.1551174 16.4434858,19.5506518 C16.4434858,18.9461862 16.9352348,18.4544372 17.5397004,18.4544372 C18.144166,18.4544372 18.635915,18.9461862 18.635915,19.5506518 C18.635915,20.1551174 18.144166,20.6468664 17.5397004,20.6468664 Z" id="Shape"></path>
                        </g>
                    </g>
                </g>
            </g>
        </g>
    </g>
</svg>