<?xml version="1.0" encoding="UTF-8"?>
<svg width="36px" height="36px" viewBox="0 0 36 36" version="1.1" xmlns="http://www.w3.org/2000/svg" xmlns:xlink="http://www.w3.org/1999/xlink">
    <!-- Generator: Sketch 51.3 (57544) - http://www.bohemiancoding.com/sketch -->
    <title>004-pinterest-logo</title>
    <desc>Created with Sketch.</desc>
    <defs></defs>
    <g id="Page-1" stroke="none" stroke-width="1" fill="none" fill-rule="evenodd">
        <g id="2.-Product-page---Pure-oxygen" transform="translate(-1160.000000, -2012.000000)" fill="#E6F2F5" fill-rule="nonzero">
            <g id="Group-6-Copy-4" transform="translate(0.000000, 1909.000000)">
                <g id="Group-12-Copy" transform="translate(995.000000, 60.000000)">
                    <g id="004-pinterest-logo" transform="translate(165.000000, 43.000000)">
                        <path d="M33.551426,8.95514351 C31.9434806,6.20044647 29.7624055,4.0193713 27.0076264,2.41150797 C24.2529294,0.803726651 21.2445103,0 17.982041,0 C14.7198178,0 11.7112346,0.803726651 8.95653759,2.41150797 C6.20143052,4.01912528 4.02035535,6.20020046 2.41257403,8.95514351 C0.804382688,11.7102506 0.000656036446,14.7185877 0.000656036446,17.9808929 C0.000656036446,21.617795 0.991681093,24.9193804 2.97397722,27.8843371 C4.95619134,30.8506059 7.55499772,33.0434077 10.7703964,34.4637267 C10.7079089,32.7937039 10.8094305,31.4124191 11.0745513,30.3198724 L13.392574,20.5327927 C13.0022323,19.7677722 12.8071435,18.8164374 12.8071435,17.676492 C12.8071435,16.3500683 13.1424601,15.2418588 13.8137494,14.3519453 C14.4850387,13.4621959 15.3043462,13.0174032 16.272164,13.0174032 C17.0523554,13.0174032 17.6532027,13.2748975 18.0747882,13.7898861 C18.4964556,14.3051207 18.7066333,14.9527927 18.7066333,15.7333941 C18.7066333,16.2168929 18.6165103,16.8063417 18.4369203,17.5009203 C18.2574943,18.1955809 18.0235353,18.9993895 17.7347973,19.9125923 C17.4460592,20.825467 17.2390797,21.5556355 17.1143508,22.1014579 C16.8959727,23.0533667 17.0753166,23.8689021 17.6528747,24.5483098 C18.2303508,25.2271435 18.9954533,25.5670524 19.9476082,25.5670524 C21.617631,25.5670524 22.9871071,24.6384328 24.0566105,22.7811936 C25.1257859,20.9233804 25.6601276,18.6679271 25.6601276,16.0146697 C25.6601276,13.9696401 25.0006469,12.3072437 23.6814396,11.0277267 C22.3623964,9.74771754 20.5245923,9.10742597 18.1675353,9.10742597 C15.5301868,9.10742597 13.3955262,9.95428702 11.7644556,11.6477631 C10.133303,13.3414852 9.31776765,15.3668337 9.31776765,17.7235626 C9.31776765,19.1284647 9.71581777,20.3071162 10.511754,21.2589431 C10.7770387,21.5710524 10.8629795,21.906615 10.7692483,22.265877 C10.7380046,22.3596082 10.6756811,22.5936492 10.5819499,22.968 C10.4886287,23.3423508 10.4258952,23.5848383 10.3948975,23.6938223 C10.2701686,24.1933121 9.97339408,24.3493667 9.50514806,24.1619043 C8.3034533,23.6629066 7.39016856,22.7963645 6.76603189,21.563262 C6.1416492,20.3301595 5.82937585,18.9017221 5.82937585,17.2788519 C5.82937585,16.2330478 5.99723918,15.1873257 6.33288383,14.1416856 C6.66820046,13.0956355 7.19130752,12.0851754 7.90130296,11.1095672 C8.61170843,10.133713 9.46234169,9.27127107 10.4535308,8.52240547 C11.4443098,7.77329385 12.6501868,7.17244647 14.0705877,6.71978132 C15.4909886,6.26711617 17.0204556,6.0407836 18.6594806,6.0407836 C20.8762278,6.0407836 22.8659043,6.53240091 24.6294123,7.51571754 C26.3934943,8.49911617 27.7394351,9.77100683 28.6683007,11.3319636 C29.5971663,12.8930023 30.0613121,14.5631891 30.0613121,16.3425239 C30.0613121,18.683672 29.6555535,20.790697 28.8442005,22.6639271 C28.0326834,24.5368292 26.8853576,26.0079089 25.4022232,27.0768383 C23.9193349,28.1463417 22.2338132,28.6809294 20.3445923,28.6809294 C19.3927654,28.6809294 18.5030979,28.458369 17.675508,28.0138223 C16.848492,27.5687836 16.2786424,27.0423144 15.966615,26.4333485 C15.264164,29.195672 14.8426606,30.8427335 14.7021048,31.373303 C14.4055763,32.4810205 13.7969385,33.7611936 12.8758633,35.2126743 C14.5460501,35.712164 16.2472346,35.9613759 17.9798269,35.9613759 C21.2420501,35.9613759 24.2507153,35.1576492 27.0054123,33.5496219 C29.7603554,31.9421686 31.9414305,29.7610934 33.5488838,27.0063964 C35.1566651,24.2511253 35.9603918,21.2425421 35.9603918,17.9805649 C35.9612118,14.7185877 35.1586333,11.7098405 33.551426,8.95514351 Z" id="Shape"></path>
                    </g>
                </g>
            </g>
        </g>
    </g>
</svg>