<?xml version="1.0" encoding="UTF-8"?>
<svg width="64px" height="78px" viewBox="0 0 64 78" version="1.1" xmlns="http://www.w3.org/2000/svg" xmlns:xlink="http://www.w3.org/1999/xlink">
    <!-- Generator: Sketch 51.3 (57544) - http://www.bohemiancoding.com/sketch -->
    <title>005-clover</title>
    <desc>Created with Sketch.</desc>
    <defs></defs>
    <g id="Page-1" stroke="none" stroke-width="1" fill="none" fill-rule="evenodd">
        <g id="2.-Product-page---Pure-oxygen" transform="translate(-315.000000, -1511.000000)" fill-rule="nonzero">
            <g id="Group-19" transform="translate(217.000000, 1493.000000)">
                <g id="Group-18">
                    <g id="005-clover" transform="translate(98.000000, 18.000000)">
                        <path d="M30.1622668,28.6238532 C30.0511696,28.4867487 29.8557207,28.3570468 29.5862069,28.2413793 L29.5862069,29.5862069 C30.2116434,29.3028986 30.4204651,28.9548165 30.1622668,28.6238532 Z" id="Shape" fill="#257C89"></path>
                        <path d="M60.0919685,30.5424973 C57.3220445,28.3258564 52.9884536,27.1654672 47.6124181,27.0762065 C51.9162249,24.7851817 54.9690982,22.0478533 56.4136285,19.0576196 C57.5307195,16.9196396 57.585634,14.3837057 56.5625492,12.1994218 C55.5655254,9.98501244 53.6690209,8.3015183 51.3503264,7.57274181 C49.6487218,7.07325376 47.8538557,6.97655466 46.1083195,7.2900829 C45.6131584,5.57460367 44.7201929,3.99971005 43.5022082,2.69315644 C41.8733886,0.952758597 39.5876428,-0.0242742354 37.2028647,0.000458419068 C34.7838349,0.0225876362 32.514098,1.17274905 31.0673339,3.10970641 C28.9973369,5.68339016 27.8506479,9.62573809 27.6272669,14.4904467 C25.1849683,9.67036844 22.2661235,6.24870797 19.0643296,4.76102951 C16.9369981,3.64545662 14.4116762,3.57944089 12.2288718,4.58250809 C10.0121879,5.57850882 8.32696459,7.47306735 7.59743956,9.78938272 C7.09874153,11.4844064 7.00175696,13.272224 7.31449032,15.0111341 C5.59929674,15.4909104 4.0190625,16.3617602 2.69795019,17.5550643 C0.924677552,19.2102926 -0.0561510768,21.5433443 0.00248642895,23.9669585 C0.0315259556,26.3626787 1.16983817,28.6096311 3.08514388,30.0515634 C5.85506796,32.2682043 10.1886589,33.4285935 15.5646943,33.5029775 C11.2608875,35.7940023 8.20801422,38.5313307 6.77837599,41.5215644 C5.65663119,43.6571268 5.59594603,46.1932467 6.61456327,48.3797621 C7.61177317,50.5854314 9.50176237,52.2626029 11.8118939,52.9915654 C12.8444725,53.3062093 13.9191211,53.4618577 14.9987958,53.4527457 C15.697606,53.451258 16.3949269,53.3915649 17.0836849,53.2742243 C17.5550188,54.9880299 18.4221093,56.5675725 19.615336,57.8860275 C21.2616538,59.6457652 23.5784868,60.6244716 25.9891398,60.5787255 C28.4081696,60.5565963 30.6779064,59.4064349 32.1246705,57.4694775 C32.7791768,56.6291252 33.3244125,55.7093679 33.7479056,54.7321492 C33.7443688,61.9405092 32.9655138,69.1274839 31.4247435,76.1695958 C31.235242,76.9690371 31.7305893,77.7707098 32.5308516,77.9600169 C32.6563173,77.9897704 32.7851336,78.0029736 32.91395,77.9994404 L38.5431505,77.9994404 C39.1444177,77.996465 39.6848135,77.6325417 39.9132205,77.0770797 C43.1745828,69.1328767 42.3406271,60.132422 40.9556651,53.705651 C41.9014973,54.603093 42.9754014,55.3551145 44.142567,55.9371687 C45.2864637,56.5037882 46.5440986,56.8039274 47.820907,56.814899 C48.9072832,56.7881208 49.9748581,56.5240579 50.9482407,56.0413062 C53.1679029,55.0635295 54.863923,53.1853355 55.609457,50.8790619 C56.1111334,49.1793893 56.2079319,47.3861789 55.8924062,45.6424337 C57.6074137,45.1700958 59.1882064,44.304081 60.5089464,43.1133803 C62.282219,41.4581521 63.2630476,39.1251003 63.2044101,36.7014862 C63.1915657,34.2745247 62.039106,31.9940996 60.0919685,30.5424973 Z M4.946652,27.7605386 L4.99132819,27.7754154 C3.76124363,26.8921063 3.0214803,25.4801135 2.99579149,23.9669585 C2.99579149,18.8047142 8.52074759,17.7782161 9.10153812,17.6889554 C9.38337045,17.7254035 9.6696704,17.6735207 9.92060169,17.5401875 C10.5337825,17.181843 10.8081688,16.4406072 10.5758526,15.7698502 L10.5758526,15.6657127 C10.5758526,15.6657127 10.5758526,15.6657127 10.5758526,15.5615752 C10.5758526,15.4574377 8.6845603,9.6108613 13.5542655,7.2900829 C14.9321539,6.65949319 16.527094,6.71472325 17.8580723,7.43885075 C22.146987,9.50672381 26.0784922,16.1864001 28.5207908,25.4843905 C28.6846035,26.3769976 28.8484163,27.2696047 29.0569052,28.1770886 C29.1280148,28.5110724 29.3121179,28.8104677 29.5781274,29.0250653 C29.2754462,28.8696029 28.9286473,28.8223691 28.5952512,28.8911742 C27.6719431,29.114326 26.7784192,29.3523545 25.8997874,29.5903831 C16.3837579,31.390474 8.66966824,30.7358955 4.946652,27.7605386 Z M32.467188,31.3309669 C31.6825624,31.4886608 31.1630155,32.2377069 31.2907149,33.0269203 L31.3949594,33.532731 C31.3588461,33.7194347 31.3588461,33.9113452 31.3949594,34.0980488 C31.528988,34.6484899 31.6630165,35.1691773 31.7970451,35.6898648 C32.3880739,38.8733108 32.6624602,42.1075237 32.6161087,45.344898 C32.4969722,49.8079334 31.5587721,53.3932385 29.8164005,55.5801259 C28.9305088,56.8070887 27.5181826,57.5457211 26.0040319,57.573615 C20.8811615,57.573615 19.853609,52.0989583 19.7493646,51.4741333 C19.7849194,51.1925902 19.7329833,50.9069559 19.6004439,50.6559102 C19.2506665,50.0584213 18.5345444,49.7809693 17.8729644,49.9864549 L17.6942596,49.9864549 C17.6942596,49.9864549 11.7374336,51.8758065 9.39937942,47.0110979 C8.76590821,45.6349953 8.82100885,44.0407619 9.54830007,42.7117072 C11.5587288,38.5462075 17.9176406,34.7377506 26.8082034,32.2979579 L28.2974099,32.015299 C28.4848637,31.9704827 28.6618931,31.8895902 28.8186321,31.7772704 L29.3249623,31.6582562 C30.1211294,31.4670895 30.6134983,30.6695079 30.4269751,29.873042 C30.3365058,29.5282725 30.1252247,29.2273895 29.8312925,29.0250653 C30.0479721,29.1539354 30.2940635,29.2255299 30.5461117,29.2333403 L30.858845,29.2333403 C31.6600381,29.0555627 32.1661822,28.2637458 31.990642,27.4630029 L31.7821531,27.0762065 C31.8182663,26.8895028 31.8182663,26.6975923 31.7821531,26.5108887 C31.6630165,25.9753244 31.528988,25.454637 31.3949594,24.9488263 C29.8015084,15.9483716 30.5014355,8.58436316 33.375604,5.01393485 C34.2456729,3.77841788 35.6466439,3.02342106 37.1581885,2.97581535 C42.2810589,2.97581535 43.3086113,8.4504721 43.4128558,9.07529706 C43.377301,9.35684021 43.4292371,9.64247447 43.5617764,9.89352021 C43.919186,10.4990053 44.6520617,10.7719943 45.3190401,10.5480987 L45.4828528,10.5480987 C45.4828528,10.5480987 51.4396788,8.65874709 53.7628409,13.5234557 C54.3963122,14.8995582 54.3412115,16.4937917 53.6139203,17.8228464 C51.6183836,21.9585926 45.304148,25.7670494 36.4731535,28.2365957 L34.9988391,28.563885 C34.8175282,28.6060978 34.6458971,28.6817835 34.4925089,28.7870367 L33.9861787,28.9209278 C33.218865,29.1053999 32.7289161,29.8559337 32.8692738,30.631758 L32.91395,30.6466348 C32.9913887,30.9698329 33.1747473,31.2578847 33.4351723,31.464858 C33.1367725,31.3127428 32.7957442,31.265695 32.467188,31.3309669 Z M37.5453822,74.9794531 L34.7158899,74.9794531 C35.6838741,70.2040052 37.96236,57.1273115 36.0561757,47.3383872 C37.4262457,51.2509815 41.3726429,64.2681681 37.5453822,74.9794531 Z M54.1053584,42.9497357 C53.828366,42.9183085 53.5483952,42.9700053 53.3011869,43.0985036 C52.6589666,43.462055 52.3802989,44.2404827 52.6459361,44.9283481 L52.6459361,45.0324856 C52.6459361,45.0324856 52.6459361,45.0324856 52.6459361,45.1366231 C52.6459361,45.2407605 54.5372283,51.0873369 49.6675231,53.4081153 C48.2896348,54.038705 46.6946946,53.983475 45.3637163,53.2593475 C42.8171732,52.0394511 40.4046587,49.1979853 38.3495537,45.1366231 C36.8108311,41.9870218 35.6030846,38.6866071 34.745674,35.2881916 C34.5818613,34.3955845 34.4180486,33.4881007 34.2095596,32.56574 C34.1295148,32.2122304 33.9228874,31.9001899 33.6287691,31.6880097 C33.8424702,31.8092555 34.0829771,31.8756432 34.3286962,31.8814079 L34.6712137,31.8814079 C35.5796296,31.6731329 36.4731535,31.4351044 37.3368933,31.1970758 C46.7784625,29.3821081 54.5223363,30.0218098 58.1857842,32.9971668 C59.4158688,33.8804759 60.1556321,35.2924687 60.1813209,36.8056236 C60.2408892,41.8488536 54.6563648,42.8753518 54.1053584,42.9497357 Z" id="Shape" fill="#52CE93"></path>
                    </g>
                </g>
            </g>
        </g>
    </g>
</svg>