<?xml version="1.0" encoding="UTF-8"?>
<svg width="22px" height="16px" viewBox="0 0 22 16" version="1.1" xmlns="http://www.w3.org/2000/svg" xmlns:xlink="http://www.w3.org/1999/xlink">
    <!-- Generator: Sketch 51.3 (57544) - http://www.bohemiancoding.com/sketch -->
    <title>011-visa-logo</title>
    <desc>Created with Sketch.</desc>
    <defs></defs>
    <g id="Page-1" stroke="none" stroke-width="1" fill="none" fill-rule="evenodd">
        <g id="2.-Product-page---Pure-oxygen" transform="translate(-1186.000000, -2221.000000)" fill="#E6F2F5" fill-rule="nonzero">
            <g id="Group-6-Copy-4" transform="translate(0.000000, 1909.000000)">
                <g id="Group-14" transform="translate(0.000000, 295.000000)">
                    <g id="Group-15" transform="translate(1186.000000, 17.000000)">
                        <g id="011-visa-logo">
                            <path d="M20.372,0.574666667 L1.23733333,0.574666667 C0.554666667,0.574666667 0,1.12933333 0,1.812 L0,14.464 C0,15.1466667 0.554666667,15.7013333 1.23733333,15.7013333 L20.372,15.7013333 C21.0546667,15.7013333 21.6093333,15.1466667 21.6093333,14.464 L21.6093333,1.81066667 C21.6093333,1.12933333 21.0546667,0.574666667 20.372,0.574666667 Z M20.34,14.4306667 L1.26933333,14.4626667 L1.23733333,1.84266667 L20.34,1.81066667 L20.34,14.4306667 Z" id="Shape"></path>
                            <path d="M3.07066667,6.38933333 L3.712,10.984 L5.28666667,10.984 L8.22266667,5.29466667 L6.568,5.29466667 L5.32133333,7.93333333 C5.14533333,8.308 4.992,8.64666667 4.86,8.95733333 C4.836,8.63333333 4.80933333,8.31866667 4.77733333,7.99733333 L4.52533333,5.296 L2.008,5.296 L4.62533333,7.36666667 L3.07066667,6.38933333 Z" id="Shape"></path>
                            <polygon id="Shape" points="9.35333333 10.9853333 10.432 5.296 8.95066667 5.296 7.87066667 10.9853333"></polygon>
                            <path d="M10.2213333,10.6493333 C10.568,10.9093333 11.1786667,11.064 11.8546667,11.064 C13.256,11.064 14.1973333,10.272 14.1973333,9.09466667 C14.1973333,8.45066667 13.8213333,7.94 13.0493333,7.536 C12.6173333,7.29333333 12.3546667,7.13066667 12.3546667,6.92533333 C12.3546667,6.73333333 12.556,6.52666667 13.0333333,6.52666667 C13.4986667,6.52666667 13.8533333,6.70933333 13.9213333,6.74533333 L14.0893333,6.83733333 L14.5626667,5.57066667 L14.4386667,5.50133333 C14.084,5.30533333 13.644,5.21066667 13.0933333,5.21066667 C11.752,5.21066667 10.8146667,5.99466667 10.8146667,7.11733333 C10.8146667,7.93066667 11.4546667,8.38266667 12.0173333,8.68666667 C12.5453333,8.96133333 12.6493333,9.11733333 12.6493333,9.29466667 C12.6493333,9.636 12.2813333,9.75733333 11.9653333,9.75733333 C11.5533333,9.75733333 11.124,9.64133333 10.7866667,9.43866667 L10.62,9.34 L10.1186667,10.5746667 L10.2213333,10.6493333 Z" id="Shape"></path>
                            <path d="M15.6266667,10.9853333 L16.2626667,9.59466667 L17.5453333,9.59466667 L17.6573333,10.9853333 L19.196,10.9853333 L18.5293333,5.296 L16.808,5.296 L14.04,10.9853333 L15.6266667,10.9853333 Z M17.1733333,7.47066667 C17.232,7.34266667 17.292,7.196 17.3533333,7.04533333 C17.364,7.18 17.3733333,7.30666667 17.3813333,7.416 L17.468,8.388 L16.748,8.388 L17.1733333,7.47066667 Z" id="Shape"></path>
                        </g>
                    </g>
                </g>
            </g>
        </g>
    </g>
</svg>