<?xml version="1.0" encoding="UTF-8"?>
<svg width="26px" height="16px" viewBox="0 0 26 16" version="1.1" xmlns="http://www.w3.org/2000/svg" xmlns:xlink="http://www.w3.org/1999/xlink">
    <!-- Generator: Sketch 51.3 (57544) - http://www.bohemiancoding.com/sketch -->
    <title>012-mastercard</title>
    <desc>Created with Sketch.</desc>
    <defs></defs>
    <g id="Page-1" stroke="none" stroke-width="1" fill="none" fill-rule="evenodd">
        <g id="2.-Product-page---Pure-oxygen" transform="translate(-1218.000000, -2221.000000)" fill="#E6F2F5" fill-rule="nonzero">
            <g id="Group-6-Copy-4" transform="translate(0.000000, 1909.000000)">
                <g id="Group-14" transform="translate(0.000000, 295.000000)">
                    <g id="Group-15" transform="translate(1186.000000, 17.000000)">
                        <g id="012-mastercard" transform="translate(32.000000, 0.000000)">
                            <path d="M0,0.0172508143 L0,15.9827492 L25.276873,15.9827492 L25.276873,0.0172508143 L0,0.0172508143 Z M23.713355,14.4192313 L1.56351792,14.4192313 L1.56351792,1.58076873 L23.713355,1.58076873 L23.713355,14.4192313 Z" id="Shape"></path>
                            <path d="M9.90228013,12.4299674 C10.9337329,12.4299674 11.8832052,12.0746319 12.6369251,11.4812769 C13.4120651,12.0907883 14.3749837,12.4299674 15.3745928,12.4299674 C17.8172769,12.4299674 19.8045603,10.442684 19.8045603,8 C19.8045603,5.55731596 17.8172769,3.57003257 15.3745928,3.57003257 C14.3749316,3.57003257 13.412013,3.90915961 12.6369251,4.51872313 C11.8832052,3.92536808 10.9337329,3.57003257 9.90228013,3.57003257 C7.45959609,3.57003257 5.4723127,5.55731596 5.4723127,8 C5.4723127,10.442684 7.45959609,12.4299674 9.90228013,12.4299674 Z M18.2410423,8 C18.2410423,9.58056026 16.9551531,10.8664495 15.3745928,10.8664495 C14.7606515,10.8664495 14.1679218,10.668456 13.6802085,10.310671 C14.0934984,9.63747231 14.3322476,8.8461759 14.3322476,8 C14.3322476,7.1538241 14.0934463,6.36252769 13.6801564,5.68932899 C14.1679218,5.33154397 14.7605993,5.13355049 15.3745928,5.13355049 C16.9551531,5.13355049 18.2410423,6.41943974 18.2410423,8 Z" id="Shape"></path>
                        </g>
                    </g>
                </g>
            </g>
        </g>
    </g>
</svg>