<?xml version="1.0" encoding="UTF-8"?>
<svg width="16px" height="16px" viewBox="0 0 16 16" version="1.1" xmlns="http://www.w3.org/2000/svg" xmlns:xlink="http://www.w3.org/1999/xlink">
    <!-- Generator: Sketch 51.3 (57544) - http://www.bohemiancoding.com/sketch -->
    <title>013-paypal</title>
    <desc>Created with Sketch.</desc>
    <defs></defs>
    <g id="Page-1" stroke="none" stroke-width="1" fill="none" fill-rule="evenodd">
        <g id="2.-Product-page---Pure-oxygen" transform="translate(-1254.000000, -2221.000000)" fill="#E6F2F5" fill-rule="nonzero">
            <g id="Group-6-Copy-4" transform="translate(0.000000, 1909.000000)">
                <g id="Group-14" transform="translate(0.000000, 295.000000)">
                    <g id="Group-15" transform="translate(1186.000000, 17.000000)">
                        <g id="013-paypal" transform="translate(68.000000, 0.000000)">
                            <path d="M14.7019375,4.388875 C14.1213125,3.666125 13.1959375,3.18753125 12.1570312,3.05471875 C11.8277188,1.047125 10.06725,0 8.37496875,0 L4.28746875,0 C3.71925,0 3.1625625,0.19621875 2.7199375,0.55246875 C2.27728125,0.90875 1.966625,1.41065625 1.8456875,1.963625 L0.06603125,9.96575 C-0.0945625,10.6999375 0.08646875,11.460375 0.56271875,12.0520938 C1.047625,12.6545 1.76734375,13 2.537375,13 L3.2168125,13 L3.19478125,13.0977188 C3.034875,13.8067813 3.20353125,14.5390313 3.65746875,15.1067188 C4.11140625,15.6744063 4.788625,16 5.51546875,16 C6.6174375,16 7.56821875,15.252 7.82759375,14.181 L8.2400625,12.477875 C8.30821875,12.1965312 8.558,12 8.8475,12 L9.89090625,12 C11.4025938,12 12.7821562,11.4715625 13.7755,10.5120312 C14.02375,10.2722188 14.030625,9.87653125 13.7907813,9.62828125 C13.5509375,9.38 13.1553125,9.3731875 12.9070312,9.613 C12.137,10.3568125 11.0940313,10.75 9.89090625,10.75 L8.8475,10.75 C7.979,10.75 7.229625,11.3395313 7.0251875,12.1836563 L6.61271875,13.8867813 C6.489625,14.3950313 6.0384375,14.75 5.51546875,14.75 C5.17053125,14.75 4.84915625,14.5955 4.63371875,14.3260938 C4.4183125,14.0566875 4.33828125,13.7091875 4.41415625,13.3726875 L5.40728125,8.96875 L6.70890625,8.96875 C7.7268125,8.96875 8.62659375,8.79640625 9.38328125,8.45653125 C10.1912187,8.093625 10.8417188,7.53953125 11.3167187,6.809625 C11.505,6.5203125 11.4230937,6.13315625 11.1337813,5.94490625 C10.8445,5.75659375 10.4573125,5.8385 10.2690625,6.12784375 C9.58203125,7.1835 8.38421875,7.71875 6.70890625,7.71875 L5.68915625,7.71875 L6.24446875,5.25628125 C6.37390625,4.6821875 6.8753125,4.28125 7.4638125,4.28125 L11.8015938,4.28125 C11.819625,4.28125 11.8375312,4.2805 11.8551875,4.27896875 C12.6358125,4.3438125 13.3226562,4.66790625 13.7274375,5.17175 C14.1658125,5.7174375 14.286375,6.46859375 14.0857812,7.404375 C14.0134375,7.741875 14.228375,8.07415625 14.5659062,8.1465 C14.9034375,8.21896875 15.2356875,8.00390625 15.3080312,7.666375 C15.6609063,6.02028125 15.1732188,4.9755 14.7019375,4.388875 Z M7.4638125,3.03125 C6.89853125,3.03125 6.3440625,3.2256875 5.9025625,3.57871875 C5.4610625,3.93175 5.14940625,4.429875 5.0250625,4.9813125 C4.990375,5.057375 3.500125,11.6612813 3.49871875,11.75 L2.537375,11.75 C2.1476875,11.75 1.782875,11.5744375 1.5365,11.2683125 C1.29875,10.9729063 1.20784375,10.5955 1.28671875,10.235 L3.06634375,2.232875 C3.19090625,1.663375 3.70446875,1.25 4.2874375,1.25 L8.3749375,1.25 C9.4180625,1.25 10.557125,1.81171875 10.87525,3.03125 L7.4638125,3.03125 Z" id="Shape"></path>
                        </g>
                    </g>
                </g>
            </g>
        </g>
    </g>
</svg>