<?xml version="1.0" encoding="UTF-8"?>
<svg width="10px" height="14px" viewBox="0 0 10 14" version="1.1" xmlns="http://www.w3.org/2000/svg" xmlns:xlink="http://www.w3.org/1999/xlink">
    <!-- Generator: Sketch 51.3 (57544) - http://www.bohemiancoding.com/sketch -->
    <title>005-location-pin</title>
    <desc>Created with Sketch.</desc>
    <defs></defs>
    <g id="Page-1" stroke="none" stroke-width="1" fill="none" fill-rule="evenodd">
        <g id="2.-Product-page---Pure-oxygen" transform="translate(-447.000000, -2009.000000)" fill="#E6F2F5" fill-rule="nonzero">
            <g id="Group-6-Copy-4" transform="translate(0.000000, 1909.000000)">
                <g id="Group-13" transform="translate(445.000000, 60.000000)">
                    <g id="005-location-pin" transform="translate(2.000000, 40.000000)">
                        <path d="M4.921875,0 C2.2077942,0 0,2.23513795 0,4.94921875 C0,5.91458131 0.279632555,6.84982298 0.808670051,7.65325928 L4.921875,14 L9.03507995,7.65325928 C9.56411745,6.84982298 9.84375,5.91458131 9.84375,4.94921875 C9.84375,2.23513795 7.6359558,0 4.921875,0 Z M4.921875,7.41015625 C3.5648346,7.41015625 2.4609375,6.30625915 2.4609375,4.94921875 C2.4609375,3.59217835 3.5648346,2.4609375 4.921875,2.4609375 C6.2789154,2.4609375 7.3828125,3.59217835 7.3828125,4.94921875 C7.3828125,6.30625915 6.2789154,7.41015625 4.921875,7.41015625 Z" id="Shape"></path>
                    </g>
                </g>
            </g>
        </g>
    </g>
</svg>