<svg xmlns="http://www.w3.org/2000/svg" width="199.792" height="34.884" viewBox="0 0 199.792 34.884">
  <g id="LOGO_Default" transform="translate(0.004 0)">
    <path id="Fill_1" data-name="Fill 1" d="M19.018,8.863c.224,6.767-3.371,10.164-8.941,10.164C4.178,19.027,0,14.9,0,9.487A9.379,9.379,0,0,1,9.722,0a12.5,12.5,0,0,1,6.469,1.765L16.7,5.456h-.211C15.722,2.405,12.71.785,9.747.785,5.241.785,1.9,4.5,1.9,9.436s3.317,8.808,8.3,8.808c5.013,0,8.557-3.476,8.562-9.379Z" transform="translate(36.469 3.171)" fill="#002f47"/>
    <path id="Fill_3" data-name="Fill 3" d="M12.685,14.748l-1.564,4.28H0l0-.265H.344A1.709,1.709,0,0,0,2.062,17.1V2.263A1.647,1.647,0,0,0,.353.746H.014l0-.264H7.849A11.729,11.729,0,0,0,11.047,0V3.345l-.271,0V2.869a1.588,1.588,0,0,0-1.5-1.577H3.805v8.19H8.339a1.314,1.314,0,0,0,1.3-1.3V7.787l.262,0v4.193l-.262,0v-.391a1.313,1.313,0,0,0-1.27-1.3H3.805v7.938H7.653c2.843,0,3.934-1.452,4.762-3.469Z" transform="translate(60.254 3.171)" fill="#002f47"/>
    <path id="Fill_5" data-name="Fill 5" d="M12.685,13.417l-1.564,4.025H0l0-.249H.344a1.663,1.663,0,0,0,1.718-1.567V1.816A1.664,1.664,0,0,0,.344.249H0L0,0H5.869l0,.249H5.525A1.664,1.664,0,0,0,3.807,1.816V16.679H7.654c2.842,0,3.934-1.366,4.762-3.263Z" transform="translate(76.11 3.171)" fill="#002f47"/>
    <path id="Fill_7" data-name="Fill 7" d="M11.3.481A10.029,10.029,0,0,0,14.271,0V3.326l-.248,0V2.851a1.532,1.532,0,0,0-1.406-1.576H7.942V17.121a1.636,1.636,0,0,0,1.579,1.642h.312l0,.265h-5.4l0-.265h.312a1.635,1.635,0,0,0,1.578-1.621V1.275H1.654A1.532,1.532,0,0,0,.248,2.851v.471L0,3.326V0A10.026,10.026,0,0,0,2.97.481Z" transform="translate(90.381 3.171)" fill="#002f47"/>
    <path id="Fill_9" data-name="Fill 9" d="M6.342,17.442H0l0-.249H.371a1.748,1.748,0,0,0,1.857-1.567V1.805A1.749,1.749,0,0,0,.372.249H.005L0,0H6.342l0,.249H5.971A1.751,1.751,0,0,0,4.115,1.8V15.626a1.747,1.747,0,0,0,1.857,1.567h.366Z" transform="translate(109.408 3.171)" fill="#002f47"/>
    <path id="Fill_11" data-name="Fill 11" d="M17.442,11.032l-.327,4.1a8.355,8.355,0,0,1-7.537,3.893C3.969,19,0,15.264,0,9.487,0,3.816,3.835,0,9.736,0a11.678,11.678,0,0,1,6.344,1.765l.541,3.692H16.4C15.582,2.405,12.954.785,9.731.783,5.016.783,2.012,4.259,2.012,9.46c0,5.253,3.057,8.677,7.567,8.784,3.808-.011,7.03-1.859,7.64-7.212Z" transform="translate(120.507 3.171)" fill="#002f47"/>
    <path id="Fill_13" data-name="Fill 13" d="M21.636,25.37h0a6.2,6.2,0,0,1-4.552-2.2A18.49,18.49,0,0,1,13.367,16.2L12.4,13.232H5.572L3.847,17.856a1.251,1.251,0,0,0,.089,1.193,1.049,1.049,0,0,0,.858.435h.219v.257H0v-.26H.224a2.43,2.43,0,0,0,2.118-1.493L8.509,2.57A3.882,3.882,0,0,0,5.19.583a5.512,5.512,0,0,0-1.925.39L3.194.711A7.4,7.4,0,0,1,6.134,0c3.591,0,4.914,3.9,5.881,6.754l3.038,8.962c1.4,4.149,3.875,9.094,7.689,9.094a4.7,4.7,0,0,0,1.023-.116l.021.259A6,6,0,0,1,21.636,25.37ZM9.14,3.686,5.863,12.453h6.286L10.182,6.4A21.566,21.566,0,0,0,9.14,3.686Z" transform="translate(149.049 1.586)" fill="#002f47"/>
    <path id="Fill_15" data-name="Fill 15" d="M6.342,17.442H0l0-.249H.371a1.748,1.748,0,0,0,1.857-1.567V1.805A1.749,1.749,0,0,0,.372.249H.005L0,0H6.342l0,.249H5.971A1.751,1.751,0,0,0,4.115,1.8V15.626a1.747,1.747,0,0,0,1.857,1.567h.366Z" transform="translate(172.833 3.171)" fill="#002f47"/>
    <path id="Fill_17" data-name="Fill 17" d="M6.813,0c3.061,0,4.937,1.779,4.937,4.683,0,2.412-1.862,4.751-4.291,4.751a6.085,6.085,0,0,1,1.808,1.753s2.177,3.067,3.155,4.121a4.574,4.574,0,0,0,3.435,1.884v.25H14.471a5.455,5.455,0,0,1-4.407-2.184c-.287-.338-3.133-4.423-3.327-4.664-.66-.818-1.4-1.682-2.32-1.682v-.23s.574.012,1.335-.008A3.784,3.784,0,0,0,9.694,6.086a5.1,5.1,0,0,0,.161-1.492C9.793,2.341,8.6.9,6.721.8,5.434.726,3.905.788,3.577.776v14.85A1.608,1.608,0,0,0,5.2,17.193h.32l0,.249H0l0-.249H.324a1.607,1.607,0,0,0,1.617-1.555V1.815A1.608,1.608,0,0,0,.323.248H0L0,0Z" transform="translate(183.932 3.171)" fill="#002f47"/>
    <path id="Fill_19" data-name="Fill 19" d="M20.709,34.884A25.175,25.175,0,0,1,8.864,32.323,16.642,16.642,0,0,1,.313,20.209C-.626,14.647.538,9.563,3.59,5.893A16.145,16.145,0,0,1,8.8,1.755,17.293,17.293,0,0,1,15.183,0,16.774,16.774,0,0,0,3.192,10.3c-2,6.229-.22,13.529,4.235,17.357,4.286,3.683,9.957,3.991,14.937,3.991h4.644c3.857,0,8.346.009,12.812.112,8.433.194,18.4.526,28.361,1.51-15.553,1.316-31.464,1.467-46.851,1.614l-.253,0Zm4.594-5.9c-5.171,0-11.017-.333-14.96-4.313a13.181,13.181,0,0,1-2.2-14.527A12.214,12.214,0,0,1,18.659,3.451a9.991,9.991,0,0,1,2.067.215A10.487,10.487,0,0,1,29.12,14.186a9.393,9.393,0,0,1-2.337,5.851A7.443,7.443,0,0,1,21.2,22.668l-.2,0a7.952,7.952,0,0,1-4.835-1.73,6.309,6.309,0,0,1-2.31-4.6,5.8,5.8,0,0,1,2.186-5.062,5.17,5.17,0,0,1,3.077-1,4.364,4.364,0,0,1,3.394,1.482,4.248,4.248,0,0,1,.9,3.555,3.252,3.252,0,0,1-1.765,2.326,2.755,2.755,0,0,1-1.216.275,2.9,2.9,0,0,1-2.212-1,2.174,2.174,0,0,1-.445-1.87,4.3,4.3,0,0,0,.073.671,2.223,2.223,0,0,0,1.017,1.441,2.267,2.267,0,0,0,1.164.311,2.636,2.636,0,0,0,2.212-1.2,2.786,2.786,0,0,0,.081-2.891,3.432,3.432,0,0,0-2.954-1.737,3.169,3.169,0,0,0-.422.028A3.868,3.868,0,0,0,15.689,15.7a4.736,4.736,0,0,0,3.989,4.527,5.322,5.322,0,0,0,1,.1c2.948,0,5.442-2.586,5.678-5.888a7,7,0,0,0-1.929-5.3,8.024,8.024,0,0,0-5.758-2.545,7.224,7.224,0,0,0-.91.057,8.99,8.99,0,0,0-5.7,3.319,9.134,9.134,0,0,0-1.91,6.587,8.883,8.883,0,0,0,3.061,6.5A14.228,14.228,0,0,0,20.356,25.8a51.755,51.755,0,0,0,6.6.375c.715.01,1.453.02,2.177.041,2.117.06,4.269.131,6.351.2l2.232.073c10.542.343,20.794.852,30.471,1.514-13.276.627-27.213.947-42.607.979Z" fill="#002f47"/>
  </g>
</svg>
