<?xml version="1.0" encoding="UTF-8"?>
<svg width="16px" height="16px" viewBox="0 0 16 16" version="1.1" xmlns="http://www.w3.org/2000/svg" xmlns:xlink="http://www.w3.org/1999/xlink">
    <!-- Generator: Sketch 51.3 (57544) - http://www.bohemiancoding.com/sketch -->
    <title>Combined Shape</title>
    <desc>Created with Sketch.</desc>
    <defs></defs>
    <g id="Page-1" stroke="none" stroke-width="1" fill="none" fill-rule="evenodd">
        <g id="2.-Product-page---Pure-oxygen" transform="translate(-1226.000000, -428.000000)" fill="#5E666F">
            <g id="Group-22" transform="translate(1000.000000, 382.000000)">
                <g id="Group-21" transform="translate(0.000000, 28.000000)">
                    <path d="M235,25 L241,25 C241.552285,25 242,25.4477153 242,26 C242,26.5522847 241.552285,27 241,27 L235,27 L235,33 C235,33.5522847 234.552285,34 234,34 C233.447715,34 233,33.5522847 233,33 L233,27 L227,27 C226.447715,27 226,26.5522847 226,26 C226,25.4477153 226.447715,25 227,25 L233,25 L233,19 C233,18.4477153 233.447715,18 234,18 C234.552285,18 235,18.4477153 235,19 L235,25 Z" id="Combined-Shape"></path>
                </g>
            </g>
        </g>
    </g>
</svg>